<?xml version="1.0" encoding="UTF-8"?>
<svg version="1.1" xmlns="http://www.w3.org/2000/svg" width="200" height="200">
<path d="M0 0 C66 0 132 0 200 0 C200 66 200 132 200 200 C134 200 68 200 0 200 C0 134 0 68 0 0 Z " fill="#13232F" transform="translate(0,0)"/>
<path d="M0 0 C5.28 0 10.56 0 16 0 C17.07396066 4.29584263 17.07329796 7.60212211 17 12 C19.74303896 12.67166707 19.74303896 12.67166707 23 12 C25.3682433 9.56775013 27.19511787 6.86733048 29 4 C30.9630836 4.92751198 32.92034027 5.86736453 34.875 6.8125 C36.51082031 7.59560547 36.51082031 7.59560547 38.1796875 8.39453125 C41 10 41 10 43 13 C42.2265625 14.3303125 42.2265625 14.3303125 41.4375 15.6875 C39.9131063 19.20023331 39.85052105 20.44706507 41 24 C42.485 24.495 42.485 24.495 44 25 C44.969375 24.505 45.93875 24.01 46.9375 23.5 C50 22 50 22 51.984375 22.10546875 C54.8551021 23.37949298 55.7313483 25.13278136 57.3125 27.8125 C57.84488281 28.68519531 58.37726563 29.55789062 58.92578125 30.45703125 C60 33 60 33 59.859375 35.2109375 C59 37 59 37 55.9375 38.8125 C54.968125 39.534375 53.99875 40.25625 53 41 C52.49874717 44.66857722 52.49874717 44.66857722 53 48 C56.63 48 60.26 48 64 48 C64 50.31 64 52.62 64 55 C64.75023437 54.98839844 65.50046875 54.97679687 66.2734375 54.96484375 C72.92337417 54.9062171 79.40004873 55.18230692 86 56 C86 56.33 86 56.66 86 57 C65.87 57 45.74 57 25 57 C25 51.72 25 46.44 25 41 C23.618125 40.54625 22.23625 40.0925 20.8125 39.625 C17.47054933 38.52764307 14.27791321 37.31116529 11 36 C11 42.93 11 49.86 11 57 C-8.8 57 -28.6 57 -49 57 C-48.67 54.03 -48.34 51.06 -48 48 C-44.37 48 -40.74 48 -37 48 C-36.41439551 44.71158857 -36.41439551 44.71158857 -37 41 C-39.08545034 38.88841619 -41.41206193 37.43260857 -44 36 C-43.18852883 30.21698394 -40.31228113 26.72176246 -37 22 C-33.37 22.99 -29.74 23.98 -26 25 C-25.34 24.34 -24.68 23.68 -24 23 C-24.35373957 19.0204298 -25.39274509 15.64311114 -27 12 C-22.98745115 8.48901975 -18.79016959 6.23462006 -14 4 C-11.35247996 6.57784846 -9.05567935 8.91648098 -7 12 C-3.91634129 12.2502157 -3.91634129 12.2502157 -1 12 C-1.020625 10.7625 -1.04125 9.525 -1.0625 8.25 C-1.11433318 5.1400091 -0.782223 3.12889199 0 0 Z " fill="#19AD85" transform="translate(92,38)"/>
<path d="M0 0 C8.37968013 6.19064556 14.24248055 13.40961724 17.47265625 23.421875 C17.96765625 27.876875 17.96765625 27.876875 18.47265625 32.421875 C11.87265625 32.091875 5.27265625 31.761875 -1.52734375 31.421875 C-1.52734375 26.471875 -1.52734375 21.521875 -1.52734375 16.421875 C-3.07421875 15.968125 -4.62109375 15.514375 -6.21484375 15.046875 C-8.99549139 14.22167577 -11.61246206 13.38511937 -14.27734375 12.234375 C-19.36828856 10.39597826 -23.61343362 11.54990924 -28.52734375 13.421875 C-28.19734375 12.761875 -27.86734375 12.101875 -27.52734375 11.421875 C-27.45738361 9.71484765 -27.44294221 8.00519497 -27.46484375 6.296875 C-27.47386719 5.38679688 -27.48289063 4.47671875 -27.4921875 3.5390625 C-27.50378906 2.84039062 -27.51539063 2.14171875 -27.52734375 1.421875 C-28.51734375 1.421875 -29.50734375 1.421875 -30.52734375 1.421875 C-30.48609375 2.618125 -30.44484375 3.814375 -30.40234375 5.046875 C-30.38882667 8.84517453 -31.10724622 11.87163118 -32.52734375 15.421875 C-33.18734375 15.091875 -33.84734375 14.761875 -34.52734375 14.421875 C-34.52734375 11.451875 -34.52734375 8.481875 -34.52734375 5.421875 C-35.51734375 5.421875 -36.50734375 5.421875 -37.52734375 5.421875 C-37.52734375 9.381875 -37.52734375 13.341875 -37.52734375 17.421875 C-38.84734375 17.421875 -40.16734375 17.421875 -41.52734375 17.421875 C-41.52734375 22.041875 -41.52734375 26.661875 -41.52734375 31.421875 C-47.79734375 31.421875 -54.06734375 31.421875 -60.52734375 31.421875 C-60.52734375 21.32982121 -57.13950402 12.76639132 -50.08984375 5.359375 C-36.02254742 -7.10651036 -16.40778938 -10.24535844 0 0 Z " fill="#132530" transform="translate(121.52734375,60.578125)"/>
<path d="M0 0 C0.99 0 1.98 0 3 0 C4.1577506 3.47325181 4.06866652 6.36067448 4 10 C4.53625 9.835 5.0725 9.67 5.625 9.5 C11.82661833 8.19439614 16.24382303 9.57728433 21.875 12 C22.56335938 12.28617188 23.25171875 12.57234375 23.9609375 12.8671875 C25.64458078 13.56870553 27.3228668 14.28305756 29 15 C29 19.95 29 24.9 29 30 C33.29 30 37.58 30 42 30 C42 30.33 42 30.66 42 31 C43.00788574 30.99476318 44.01577148 30.98952637 45.05419922 30.98413086 C48.83755587 30.96586245 52.62090872 30.95448915 56.40429688 30.94506836 C58.03353534 30.94007761 59.66276942 30.93328265 61.29199219 30.92456055 C69.93196627 30.87950547 78.41302461 30.89843851 87 32 C87 32.33 87 32.66 87 33 C66.87 33 46.74 33 26 33 C26 27.72 26 22.44 26 17 C24.618125 16.54625 23.23625 16.0925 21.8125 15.625 C18.47054933 14.52764307 15.27791321 13.31116529 12 12 C12 18.93 12 25.86 12 33 C-2.19 33 -16.38 33 -31 33 C-31 30.69 -31 28.38 -31 26 C-30.67 27.32 -30.34 28.64 -30 30 C-23.73 30 -17.46 30 -11 30 C-11 25.38 -11 20.76 -11 16 C-9.68 16 -8.36 16 -7 16 C-7 12.04 -7 8.08 -7 4 C-6.01 4 -5.02 4 -4 4 C-3.67 6.97 -3.34 9.94 -3 13 C-2.67 13 -2.34 13 -2 13 C-1.34 8.71 -0.68 4.42 0 0 Z " fill="#19A07D" transform="translate(91,62)"/>
<path d="M0 0 C0.97066406 -0.00515625 1.94132812 -0.0103125 2.94140625 -0.015625 C5.4375 0.25 5.4375 0.25 7.4375 2.25 C7.69628906 4.55664062 7.69628906 4.55664062 7.703125 7.40625 C7.70699219 8.93958984 7.70699219 8.93958984 7.7109375 10.50390625 C7.70320313 11.57511719 7.69546875 12.64632812 7.6875 13.75 C7.69523437 14.82121094 7.70296875 15.89242187 7.7109375 16.99609375 C7.70835938 18.01832031 7.70578125 19.04054687 7.703125 20.09375 C7.70086914 21.03412109 7.69861328 21.97449219 7.69628906 22.94335938 C7.4375 25.25 7.4375 25.25 5.4375 27.25 C2.94140625 27.55078125 2.94140625 27.55078125 0 27.5625 C-1.45212891 27.58763672 -1.45212891 27.58763672 -2.93359375 27.61328125 C-6.0333089 27.18494023 -6.70052744 26.70233781 -8.5625 24.25 C-8.95068359 21.92163086 -8.95068359 21.92163086 -8.9609375 19.21484375 C-8.96480469 18.24095703 -8.96867187 17.26707031 -8.97265625 16.26367188 C-8.96105469 15.24853516 -8.94945313 14.23339844 -8.9375 13.1875 C-8.94910156 12.16849609 -8.96070312 11.14949219 -8.97265625 10.09960938 C-8.96878906 9.12701172 -8.96492188 8.15441406 -8.9609375 7.15234375 C-8.95755371 6.26023193 -8.95416992 5.36812012 -8.95068359 4.44897461 C-8.82258301 3.72331299 -8.69448242 2.99765137 -8.5625 2.25 C-5.19898987 0.00765991 -3.93939944 -0.02098215 0 0 Z " fill="#E6E7E7" transform="translate(110.5625,115.75)"/>
<path d="M0 0 C0.9796875 0.00515625 1.959375 0.0103125 2.96875 0.015625 C3.9484375 0.01046875 4.928125 0.0053125 5.9375 0 C8.46875 0.265625 8.46875 0.265625 10.46875 2.265625 C10.73866906 4.95401885 10.55612357 7.55704436 10.46875 10.265625 C8.81875 10.265625 7.16875 10.265625 5.46875 10.265625 C5.46875 8.285625 5.46875 6.305625 5.46875 4.265625 C3.81875 4.265625 2.16875 4.265625 0.46875 4.265625 C0.46875 7.895625 0.46875 11.525625 0.46875 15.265625 C1.726875 15.20375 2.985 15.141875 4.28125 15.078125 C6.81026999 14.95374697 8.05717954 15.00295981 10.20703125 16.375 C12.06028364 19.15200977 11.86626637 21.39697144 11.84375 24.703125 C11.85148437 25.83621094 11.85921875 26.96929687 11.8671875 28.13671875 C11.43204913 31.55383474 11.04477779 32.98746766 8.46875 35.265625 C5.83984375 35.7265625 5.83984375 35.7265625 2.90625 35.640625 C1.93558594 35.62773437 0.96492187 35.61484375 -0.03515625 35.6015625 C-2.53125 35.265625 -2.53125 35.265625 -4.53125 33.265625 C-4.80116906 30.57723115 -4.61862357 27.97420564 -4.53125 25.265625 C-2.88125 25.265625 -1.23125 25.265625 0.46875 25.265625 C0.46875 27.245625 0.46875 29.225625 0.46875 31.265625 C2.11875 31.265625 3.76875 31.265625 5.46875 31.265625 C5.46875 27.305625 5.46875 23.345625 5.46875 19.265625 C3.550625 19.3275 3.550625 19.3275 1.59375 19.390625 C-0.5859375 19.4609375 -0.5859375 19.4609375 -2.53125 19.265625 C-5.02335439 16.77352061 -4.79140661 15.26201712 -4.8046875 11.85546875 C-4.79695313 11.16582031 -4.78921875 10.47617188 -4.78125 9.765625 C-4.78898437 9.07597656 -4.79671875 8.38632813 -4.8046875 7.67578125 C-4.77671666 0.50126039 -4.77671666 0.50126039 0 0 Z " fill="#E3E5E5" transform="translate(127.53125,107.734375)"/>
<path d="M0 0 C1.45599609 0.00773437 1.45599609 0.00773437 2.94140625 0.015625 C3.90949219 0.01046875 4.87757812 0.0053125 5.875 0 C8.50390625 0.265625 8.50390625 0.265625 11.50390625 2.265625 C11.796875 5.3046875 11.796875 5.3046875 11.69140625 8.890625 C11.66433594 10.07914063 11.63726562 11.26765625 11.609375 12.4921875 C11.57457031 13.40742188 11.53976563 14.32265625 11.50390625 15.265625 C7.87390625 15.265625 4.24390625 15.265625 0.50390625 15.265625 C0.50390625 17.905625 0.50390625 20.545625 0.50390625 23.265625 C2.48390625 23.265625 4.46390625 23.265625 6.50390625 23.265625 C6.50390625 21.945625 6.50390625 20.625625 6.50390625 19.265625 C8.15390625 19.265625 9.80390625 19.265625 11.50390625 19.265625 C11.24829302 21.6087463 10.91119853 23.94405903 10.50390625 26.265625 C8.05008491 27.49253567 6.30406522 27.46738431 3.56640625 27.515625 C2.69113281 27.54140625 1.81585938 27.5671875 0.9140625 27.59375 C-2.03765171 27.19189588 -2.70700791 26.60512533 -4.49609375 24.265625 C-4.8684082 21.93725586 -4.8684082 21.93725586 -4.859375 19.23046875 C-4.85873047 18.25658203 -4.85808594 17.28269531 -4.85742188 16.27929688 C-4.84130859 15.26416016 -4.82519531 14.24902344 -4.80859375 13.203125 C-4.81181641 12.18412109 -4.81503906 11.16511719 -4.81835938 10.11523438 C-4.74830682 0.50529713 -4.74830682 0.50529713 0 0 Z " fill="#E9EAEA" transform="translate(54.49609375,115.734375)"/>
<path d="M0 0 C2.33333333 0 4.66666667 0 7 0 C7.969375 -0.04125 8.93875 -0.0825 9.9375 -0.125 C13 0 13 0 16 2 C16.34057617 4.52197266 16.34057617 4.52197266 16.29296875 7.6640625 C16.28330078 8.78554687 16.27363281 9.90703125 16.26367188 11.0625 C16.23853516 12.238125 16.21339844 13.41375 16.1875 14.625 C16.16719727 16.40003906 16.16719727 16.40003906 16.14648438 18.2109375 C16.11103916 21.14107539 16.06162769 24.07031459 16 27 C14.35 27 12.7 27 11 27 C11 19.41 11 11.82 11 4 C9.35 4 7.7 4 6 4 C6 11.59 6 19.18 6 27 C4.02 27 2.04 27 0 27 C0 18.09 0 9.18 0 0 Z " fill="#E2E3E3" transform="translate(12,116)"/>
<path d="M0 0 C1.65 0 3.3 0 5 0 C7.26410647 6.25958848 8.06042999 12.4230099 9 19 C10.32 12.73 11.64 6.46 13 0 C14.65 0 16.3 0 18 0 C17.40831404 3.81454378 16.79936375 7.62614507 16.1875 11.4375 C16.02185547 12.50677734 15.85621094 13.57605469 15.68554688 14.67773438 C13.04778741 30.95221259 13.04778741 30.95221259 10 34 C7.66702567 34.04092937 5.33294775 34.04241723 3 34 C3 33.01 3 32.02 3 31 C3.639375 30.71125 4.27875 30.4225 4.9375 30.125 C7.15206079 29.17176549 7.15206079 29.17176549 8 27 C7.01 27 6.02 27 5 27 C4.1617875 23.06352226 3.33026745 19.12566049 2.5 15.1875 C2.14228516 13.50817383 2.14228516 13.50817383 1.77734375 11.79492188 C1.55175781 10.72177734 1.32617188 9.64863281 1.09375 8.54296875 C0.88427734 7.55321045 0.67480469 6.56345215 0.45898438 5.54370117 C0 3 0 3 0 0 Z " fill="#E6E7E7" transform="translate(141,116)"/>
<path d="M0 0 C4.29 0 8.58 0 13 0 C16 3 16 3 16.34057617 5.54370117 C16.32486572 6.53345947 16.30915527 7.52321777 16.29296875 8.54296875 C16.28330078 9.61611328 16.27363281 10.68925781 16.26367188 11.79492188 C16.23853516 12.91447266 16.21339844 14.03402344 16.1875 15.1875 C16.16719727 16.88422852 16.16719727 16.88422852 16.14648438 18.61523438 C16.11109958 21.41063317 16.06172948 24.20507892 16 27 C14.35 27 12.7 27 11 27 C10.67 19.74 10.34 12.48 10 5 C8.68 5 7.36 5 6 5 C5.67 12.26 5.34 19.52 5 27 C3.35 27 1.7 27 0 27 C0 18.09 0 9.18 0 0 Z " fill="#E5E6E6" transform="translate(70,116)"/>
<path d="M0 0 C4.29 0 8.58 0 13 0 C15 2 15 2 15.22705078 4.52197266 C15.21134033 6.07730713 15.21134033 6.07730713 15.1953125 7.6640625 C15.18564453 9.34628906 15.18564453 9.34628906 15.17578125 11.0625 C15.15902344 12.238125 15.14226562 13.41375 15.125 14.625 C15.11597656 15.80835938 15.10695312 16.99171875 15.09765625 18.2109375 C15.07402812 21.14082523 15.04108514 24.0703134 15 27 C13.35 27 11.7 27 10 27 C10 19.41 10 11.82 10 4 C8.35 4 6.7 4 5 4 C5 11.59 5 19.18 5 27 C3.35 27 1.7 27 0 27 C0 18.09 0 9.18 0 0 Z " fill="#EFF0EF" transform="translate(162,116)"/>
<path d="M0 0 C1.65 0 3.3 0 5 0 C5.99 5.94 6.98 11.88 8 18 C8.99 12.06 9.98 6.12 11 0 C12.65 0 14.3 0 16 0 C15.27643663 9.11689851 13.65707093 18.01638277 12 27 C9.36 27 6.72 27 4 27 C2.34292907 18.01638277 0.72356337 9.11689851 0 0 Z " fill="#E7E8E8" transform="translate(31,116)"/>
<path d="M0 0 C0.9796875 0.00515625 1.959375 0.0103125 2.96875 0.015625 C3.9484375 0.01046875 4.928125 0.0053125 5.9375 0 C8.46875 0.265625 8.46875 0.265625 10.46875 2.265625 C10.59375 5.390625 10.59375 5.390625 10.46875 8.265625 C9.14875 8.265625 7.82875 8.265625 6.46875 8.265625 C6.13875 7.275625 5.80875 6.285625 5.46875 5.265625 C3.81875 4.935625 2.16875 4.605625 0.46875 4.265625 C0.46875 10.535625 0.46875 16.805625 0.46875 23.265625 C2.11875 22.935625 3.76875 22.605625 5.46875 22.265625 C5.79875 21.275625 6.12875 20.285625 6.46875 19.265625 C7.78875 19.265625 9.10875 19.265625 10.46875 19.265625 C10.59375 22.140625 10.59375 22.140625 10.46875 25.265625 C8.46875 27.265625 8.46875 27.265625 5.9375 27.53125 C4.9578125 27.52609375 3.978125 27.5209375 2.96875 27.515625 C1.9890625 27.52078125 1.009375 27.5259375 0 27.53125 C-2.53125 27.265625 -2.53125 27.265625 -4.53125 25.265625 C-4.79003906 22.95898438 -4.79003906 22.95898438 -4.796875 20.109375 C-4.79945313 19.08714844 -4.80203125 18.06492188 -4.8046875 17.01171875 C-4.79308594 15.40490234 -4.79308594 15.40490234 -4.78125 13.765625 C-4.78898438 12.69441406 -4.79671875 11.62320313 -4.8046875 10.51953125 C-4.80210937 9.49730469 -4.79953125 8.47507812 -4.796875 7.421875 C-4.79461914 6.48150391 -4.79236328 5.54113281 -4.79003906 4.57226562 C-4.40782884 1.16554655 -3.36757243 0.35338723 0 0 Z " fill="#EDEDED" transform="translate(186.53125,115.734375)"/>
<path d="M0 0 C1.65 0 3.3 0 5 0 C5 1.65 5 3.3 5 5 C6.32 5 7.64 5 9 5 C9 6.32 9 7.64 9 9 C7.68 9 6.36 9 5 9 C5 15.27 5 21.54 5 28 C5.99 28 6.98 28 8 28 C8 29.32 8 30.64 8 32 C5.125 32.125 5.125 32.125 2 32 C0 30 0 30 -0.22705078 27.84521484 C-0.21657715 26.97590332 -0.20610352 26.1065918 -0.1953125 25.2109375 C-0.18886719 24.26992187 -0.18242188 23.32890625 -0.17578125 22.359375 C-0.15902344 21.37453125 -0.14226562 20.3896875 -0.125 19.375 C-0.11597656 18.38242188 -0.10695313 17.38984375 -0.09765625 16.3671875 C-0.07404116 13.91121866 -0.04110799 11.45572832 0 9 C-0.99 9 -1.98 9 -3 9 C-3 7.68 -3 6.36 -3 5 C-2.01 5 -1.02 5 0 5 C0 3.35 0 1.7 0 0 Z " fill="#E8E9E8" transform="translate(91,111)"/>
<path d="M0 0 C1.65 0 3.3 0 5 0 C5 11.55 5 23.1 5 35 C3.35 35 1.7 35 0 35 C0 23.45 0 11.9 0 0 Z " fill="#E8E9E8" transform="translate(2,108)"/>
<path d="M0 0 C1.98 0 3.96 0 6 0 C6 6.27 6 12.54 6 19 C4.02 19 2.04 19 0 19 C0 12.73 0 6.46 0 0 Z " fill="#1D2C38" transform="translate(107,120)"/>
<path d="M0 0 C1.98 0 3.96 0 6 0 C6 2.31 6 4.62 6 7 C4.02 7 2.04 7 0 7 C0 4.69 0 2.38 0 0 Z " fill="#152531" transform="translate(55,120)"/>
<path d="M0 0 C2.475 0.99 2.475 0.99 5 2 C5 4.31 5 6.62 5 9 C3.35 9 1.7 9 0 9 C0 6.03 0 3.06 0 0 Z " fill="#19A581" transform="translate(107,85)"/>
<path d="M0 0 C0 1.98 0 3.96 0 6 C-1.32 6.33 -2.64 6.66 -4 7 C-4 5.02 -4 3.04 -4 1 C-1 0 -1 0 0 0 Z " fill="#132A33" transform="translate(97,80)"/>
<path d="M0 0 C0.99 0 1.98 0 3 0 C2.67 1.65 2.34 3.3 2 5 C1.01 5 0.02 5 -1 5 C-0.67 3.35 -0.34 1.7 0 0 Z " fill="#133238" transform="translate(85,84)"/>
</svg>
